<!-- Fichier: src/assets/images/authentication/facture-bg.svg -->
<svg width="447" height="809" viewBox="0 0 447 809" fill="none" xmlns="http://www.w3.org/2000/svg">
  <!-- Arrière-plan dégradé -->
  <defs>
    <linearGradient id="bgGradient" x1="0%" y1="0%" x2="100%" y2="100%">
      <stop offset="0%" style="stop-color:#f0f9ff;stop-opacity:1" />
      <stop offset="50%" style="stop-color:#e0f2fe;stop-opacity:1" />
      <stop offset="100%" style="stop-color:#f0f9ff;stop-opacity:1" />
    </linearGradient>

    <!-- Gradient pour les icônes de factures -->
    <linearGradient id="factureGradient" x1="0%" y1="0%" x2="100%" y2="100%">
      <stop offset="0%" style="stop-color:#1677ff;stop-opacity:0.1" />
      <stop offset="100%" style="stop-color:#1677ff;stop-opacity:0.05" />
    </linearGradient>

    <!-- Gradient pour les éléments décoratifs -->
    <radialGradient id="decorGradient" cx="50%" cy="50%" r="50%">
      <stop offset="0%" style="stop-color:#52c41a;stop-opacity:0.1" />
      <stop offset="100%" style="stop-color:#52c41a;stop-opacity:0" />
    </radialGradient>
  </defs>

  <!-- Arrière-plan principal -->
  <rect width="447" height="809" fill="url(#bgGradient)"/>

  <!-- Motifs décoratifs avec des formes géométriques -->
  <circle cx="80" cy="120" r="40" fill="url(#decorGradient)"/>
  <circle cx="350" cy="200" r="60" fill="url(#decorGradient)"/>
  <circle cx="100" cy="400" r="30" fill="url(#decorGradient)"/>
  <circle cx="380" cy="500" r="45" fill="url(#decorGradient)"/>
  <circle cx="50" cy="650" r="35" fill="url(#decorGradient)"/>

  <!-- Icônes de factures stylisées -->
  <!-- Facture 1 -->
  <g transform="translate(60, 80)" opacity="0.6">
    <rect x="0" y="0" width="30" height="40" rx="3" fill="url(#factureGradient)" stroke="#1677ff" stroke-width="0.5"/>
    <line x1="4" y1="8" x2="26" y2="8" stroke="#1677ff" stroke-width="0.8" opacity="0.7"/>
    <line x1="4" y1="14" x2="22" y2="14" stroke="#1677ff" stroke-width="0.6" opacity="0.5"/>
    <line x1="4" y1="20" x2="24" y2="20" stroke="#1677ff" stroke-width="0.6" opacity="0.5"/>
    <circle cx="22" cy="32" r="3" fill="#52c41a" opacity="0.8"/>
  </g>

  <!-- Facture 2 -->
  <g transform="translate(320, 150)" opacity="0.5">
    <rect x="0" y="0" width="25" height="35" rx="2" fill="url(#factureGradient)" stroke="#1677ff" stroke-width="0.5"/>
    <line x1="3" y1="7" x2="22" y2="7" stroke="#1677ff" stroke-width="0.8" opacity="0.7"/>
    <line x1="3" y1="12" x2="18" y2="12" stroke="#1677ff" stroke-width="0.6" opacity="0.5"/>
    <line x1="3" y1="17" x2="20" y2="17" stroke="#1677ff" stroke-width="0.6" opacity="0.5"/>
  </g>

  <!-- Facture 3 -->
  <g transform="translate(40, 350)" opacity="0.4">
    <rect x="0" y="0" width="28" height="38" rx="2" fill="url(#factureGradient)" stroke="#1677ff" stroke-width="0.5"/>
    <line x1="4" y1="8" x2="24" y2="8" stroke="#1677ff" stroke-width="0.8" opacity="0.7"/>
    <line x1="4" y1="14" x2="20" y2="14" stroke="#1677ff" stroke-width="0.6" opacity="0.5"/>
    <line x1="4" y1="20" x2="22" y2="20" stroke="#1677ff" stroke-width="0.6" opacity="0.5"/>
    <circle cx="20" cy="30" r="2" fill="#faad14" opacity="0.8"/>
  </g>

  <!-- Facture 4 -->
  <g transform="translate(350, 450)" opacity="0.3">
    <rect x="0" y="0" width="32" height="42" rx="3" fill="url(#factureGradient)" stroke="#1677ff" stroke-width="0.5"/>
    <line x1="5" y1="9" x2="27" y2="9" stroke="#1677ff" stroke-width="0.8" opacity="0.7"/>
    <line x1="5" y1="15" x2="23" y2="15" stroke="#1677ff" stroke-width="0.6" opacity="0.5"/>
    <line x1="5" y1="21" x2="25" y2="21" stroke="#1677ff" stroke-width="0.6" opacity="0.5"/>
    <line x1="5" y1="27" x2="20" y2="27" stroke="#1677ff" stroke-width="0.6" opacity="0.5"/>
  </g>

  <!-- Facture 5 -->
  <g transform="translate(80, 600)" opacity="0.4">
    <rect x="0" y="0" width="26" height="36" rx="2" fill="url(#factureGradient)" stroke="#1677ff" stroke-width="0.5"/>
    <line x1="3" y1="7" x2="23" y2="7" stroke="#1677ff" stroke-width="0.8" opacity="0.7"/>
    <line x1="3" y1="13" x2="19" y2="13" stroke="#1677ff" stroke-width="0.6" opacity="0.5"/>
    <line x1="3" y1="19" x2="21" y2="19" stroke="#1677ff" stroke-width="0.6" opacity="0.5"/>
    <circle cx="19" cy="28" r="2" fill="#ff4d4f" opacity="0.8"/>
  </g>

  <!-- Éléments décoratifs supplémentaires -->
  <g opacity="0.2">
    <!-- Lignes ondulées -->
    <path d="M0 300 Q223 250 447 300" stroke="#1677ff" stroke-width="1" fill="none" opacity="0.3"/>
    <path d="M0 500 Q223 450 447 500" stroke="#52c41a" stroke-width="1" fill="none" opacity="0.3"/>

    <!-- Points décoratifs -->
    <circle cx="120" cy="250" r="2" fill="#1677ff" opacity="0.4"/>
    <circle cx="280" cy="320" r="1.5" fill="#52c41a" opacity="0.4"/>
    <circle cx="180" cy="580" r="2.5" fill="#faad14" opacity="0.4"/>
    <circle cx="320" cy="680" r="1" fill="#1677ff" opacity="0.4"/>
  </g>

  <!-- Overlay subtil pour adoucir l'ensemble -->
  <rect width="447" height="809" fill="url(#bgGradient)" opacity="0.1"/>
</svg>
